<?xml version="1.0" encoding="UTF-8" standalone="no"?>
<!-- Created with Inkscape (http://www.inkscape.org/) -->

<svg
   xmlns:dc="http://purl.org/dc/elements/1.1/"
   xmlns:cc="http://creativecommons.org/ns#"
   xmlns:rdf="http://www.w3.org/1999/02/22-rdf-syntax-ns#"
   xmlns:svg="http://www.w3.org/2000/svg"
   xmlns="http://www.w3.org/2000/svg"
   version="1.2"
   width="300"
   height="72"
   id="svg2">
  <defs
     id="defs4" />
  <g
     transform="translate(0,-980.36218)"
     id="layer1">
    <flowRoot
       transform="translate(0,980.36218)"
       id="flowRoot2985"
       xml:space="preserve"
       style="font-size:40px;font-style:normal;font-weight:normal;line-height:125%;letter-spacing:0px;word-spacing:0px;fill:#000000;fill-opacity:1;stroke:none;font-family:Sans"><flowRegion
         id="flowRegion2987"><rect
           width="94.444443"
           height="47.883598"
           x="6.6137567"
           y="22.793652"
           id="rect2989" /></flowRegion><flowPara
         id="flowPara2991"></flowPara></flowRoot>    <g
       id="text2993"
       style="font-size:40px;font-style:italic;font-weight:normal;line-height:125%;letter-spacing:0px;word-spacing:0px;fill:#e6e6e6;fill-opacity:1;stroke:none;font-family:Sans;-inkscape-font-specification:SquareFont Italic">
      <path
         d="m 41.592371,1001.7046 -5.605469,28.0469 -19.257812,0 5.605468,-28.0469 19.257813,0 m -6.015625,4.8047 -8.808594,0 -3.691406,18.4375 8.808594,0 3.691406,-18.4375"
         id="path3021"
         style="font-variant:normal;font-stretch:normal;fill:#e6e6e6;font-family:SquareFont;-inkscape-font-specification:SquareFont Italic" />
      <path
         d="m 43.85409,1029.7515 -4.3125,0 4.484375,-22.4375 15.40625,0 -2.609375,13.0468 -11.09375,0 -1.875,9.3907 m 3.71875,-18.5938 -1.109375,5.5469 7.046875,0 1.109375,-5.5469 -7.046875,0"
         id="path3023"
         style="font-size:32px;fill:#e6e6e6" />
      <path
         d="m 66.13534,1011.1577 -1.109375,5.5469 11.09375,0 -0.734375,3.6562 -11.09375,0 -1.109375,5.5469 11.09375,0 -0.765625,3.8438 -15.40625,0 4.484375,-22.4375 15.40625,0 -0.765625,3.8437 -11.09375,0"
         id="path3025"
         style="font-size:32px;fill:#e6e6e6" />
      <path
         d="m 80.97909,1029.7515 -4.3125,0 4.484375,-22.4375 4.3125,0 4.53125,12.5781 2.515625,-12.5781 4.046875,0 -4.484375,22.4375 -4.046875,0 -4.453125,-12.9532 -2.59375,12.9532"
         id="path3027"
         style="font-size:32px;fill:#e6e6e6" />
      <path
         d="m 97.963465,1018.0132 3.261715,-16.3086 19.25782,0 -0.95704,4.8047 -13.86718,0 -1.38672,6.9336 13.86719,0 -3.26172,16.3086 -19.257815,0 0.957031,-4.8047 14.199214,0 1.38672,-6.9336 -14.199215,0"
         id="path3029"
         style="font-variant:normal;font-stretch:normal;fill:#e6e6e6;font-family:SquareFont;-inkscape-font-specification:SquareFont Italic" />
      <path
         d="m 122.74471,1029.7515 -4.3125,0 4.48438,-22.4375 15.40625,0 -2.60938,13.0468 -11.09375,0 -1.875,9.3907 m 3.71875,-18.5938 -1.10937,5.5469 7.04687,0 1.10938,-5.5469 -7.04688,0"
         id="path3031"
         style="font-size:32px;fill:#e6e6e6" />
      <path
         d="m 150.22909,1020.3608 -7.04688,0 -1.875,9.3907 -4.3125,0 4.48438,-22.4375 15.40625,0 -4.48438,22.4375 -4.04687,0 1.875,-9.3907 m -5.20313,-9.2031 -1.10937,5.5469 7.04687,0 1.10938,-5.5469 -7.04688,0"
         id="path3033"
         style="font-size:32px;fill:#e6e6e6" />
      <path
         d="m 155.55721,1029.7515 4.48438,-22.4375 13.78125,0 1.23437,1.9687 -3.70312,18.5 -2,1.9688 -13.79688,0 m 15.07813,-18.5938 -7.04688,0 -2.95312,14.75 7.04687,0 2.95313,-14.75"
         id="path3035"
         style="font-size:32px;fill:#e6e6e6" />
      <path
         d="m 182.15096,1011.1577 -1.10937,5.5469 11.09375,0 -0.73438,3.6562 -11.09375,0 -1.10937,5.5469 11.09375,0 -0.76563,3.8438 -15.40625,0 4.48438,-22.4375 15.40625,0 -0.76563,3.8437 -11.09375,0"
         id="path3037"
         style="font-size:32px;fill:#e6e6e6" />
      <path
         d="m 194.55721,1020.3608 2.60938,-13.0468 15.40625,0 -0.76563,3.8437 -11.09375,0 -1.10937,5.5469 11.09375,0 -2.60938,13.0469 -15.40625,0 0.76563,-3.8438 11.35937,0 1.10938,-5.5469 -11.35938,0"
         id="path3039"
         style="font-size:32px;fill:#e6e6e6" />
    </g>
  </g>
</svg>
